# This file uses meters as units for non-parametric coordinates.

mtllib Tassel Low Poly.mtl
g default
v -1.530067 -2.250684 -4.329605
v 0.070854 -1.154008 -2.974045
v -1.662956 0.785980 -3.291565
v 0.291000 2.152228 -3.605103
v -2.590202 1.813521 -5.553787
v -1.504448 1.854524 -7.832916
v 1.837791 1.767657 -7.540787
v 0.325279 3.087009 -6.612732
v 2.413300 -0.424366 -7.806641
v 1.974670 0.308985 -3.444778
v -3.170448 -0.401163 -6.113052
v 0.338417 -0.560167 -8.863342
v -1.145721 -2.545854 -7.362213
v 0.177528 -3.087009 -5.594864
v -1.998604 -0.462476 -8.290604
v 1.860985 -2.272623 -6.766068
v 2.736206 1.525549 -5.426895
v 2.609169 -1.459967 -4.860657
v 1.369446 2.659927 -5.022339
v -0.913406 2.921780 -5.097404
v 1.341042 -2.391098 -4.131981
v -2.668350 -0.730611 -4.207329
v 3.170448 -0.153165 -6.002747
v -2.331291 -2.129361 -6.007736
v 0.440361 -2.157264 -7.992188
v 0.274200 1.293346 -8.690918
v 2.486626 -0.892060 4.289841
v 1.797943 -0.294986 8.863342
v -0.933189 -2.632796 4.280609
v -1.210442 -1.985900 7.975723
v -0.993996 -2.455575 0.292160
v 2.032654 -1.463033 0.195755
v -1.937569 0.161321 0.014343
v -2.581764 0.546363 3.830139
v -2.592125 0.738823 7.393661
v -1.300514 -0.031148 -2.599838
v -0.863739 -2.199406 -2.464378
v 0.638824 1.474040 -0.094826
v 0.515884 0.734403 -2.677391
v 0.599800 2.458869 3.844437
v 1.648827 -1.566970 -2.558388
v -0.152702 2.394829 8.341034
v -0.973724 -0.189345 -3.837296
v -0.763840 -2.063629 -3.938416
v 0.345650 0.303851 -3.903732
v 1.473976 -1.533585 -4.067322
vt 0.478359 0.000025
vt 0.909838 0.202873
vt 0.835641 0.228005
vt 0.788633 0.142834
vt 0.370123 0.041251
vt 0.977320 0.270013
vt 0.488578 0.094356
vt 0.389334 0.132338
vt 0.577602 0.088329
vt 0.604798 0.156081
vt 0.520802 0.183505
vt 0.432765 0.220683
vt 0.361195 0.272502
vt 0.999974 0.396791
vt 0.474358 0.287282
vt 0.451733 0.359994
vt 0.551191 0.267363
vt 0.897412 0.401784
vt 0.879998 0.309661
vt 0.809751 0.402434
vt 0.785996 0.330470
vt 0.587019 0.360006
vt 0.620958 0.231088
vt 0.689061 0.265347
vt 0.696791 0.130918
vt 0.770004 0.259465
vt 0.700391 0.229556
vt 0.614668 0.023325
vt 0.687275 0.351360
vt 0.754545 0.458848
vt 0.866879 0.506001
vt 0.967140 0.499018
vt 0.289848 0.175169
vt 0.274910 0.055459
vt 1.000000 0.168736
vt 0.911570 0.124399
vt 0.046379 0.130789
vt 0.140679 0.000000
vt 0.226975 0.680812
vt 0.207613 0.774008
vt 0.305026 0.528756
vt 0.682258 0.517311
vt 0.508677 0.364294
vt 0.685144 0.376695
vt 0.339141 0.371494
vt 0.000000 0.570024
vt 0.070908 0.669911
vt 0.691570 0.623946
vt 0.111851 0.511528
vt 0.168747 0.491034
vt 0.159104 0.186896
vt 0.171097 0.666257
vt 0.119010 0.723512
vt 0.245198 0.497433
vt 0.301240 0.494332
vt 0.329036 0.311189
vt 0.242469 0.619299
vt 0.253665 0.101168
vt 0.879305 0.614785
vt 0.504957 0.528276
vt 0.000000 0.309760
vt 0.036774 0.494318
vt 0.161411 0.325806
vt 0.155574 0.618709
vt 0.687031 0.664323
vt 0.506133 0.694471
vt 0.716335 0.764337
vt 0.812923 0.616440
vt 0.827924 0.727633
vt 0.882096 0.709162
vt 0.698581 0.484977
vt 0.818215 0.503262
vt 0.304978 0.677021
vt 0.882061 0.514236
vn -0.439268 -0.716609 0.541771
vn -0.710587 -0.696176 -0.102004
vn -0.369927 -0.792805 -0.484370
vn 0.053012 -0.991006 0.122867
vn -0.797136 -0.167112 0.580213
vn -0.989120 -0.023304 -0.145255
vn 0.019688 -0.296011 0.954982
vn -0.461174 0.240752 0.854024
vn 0.371895 -0.735910 0.565801
vn 0.827873 -0.447758 0.337844
vn 0.538104 0.130437 0.832725
vn 0.063717 0.592033 0.803391
vn -0.367469 0.900058 0.234228
vn -0.809947 0.584599 0.047230
vn 0.493366 0.823794 0.279202
vn 0.055750 0.957845 -0.281825
vn 0.861097 0.486777 0.146837
vn -0.518699 0.580945 -0.627259
vn -0.659870 -0.077403 -0.747382
vn 0.085679 0.414638 -0.905944
vn 0.106408 -0.155925 -0.982021
vn 0.574961 0.572942 -0.584087
vn 0.997977 -0.032050 -0.054908
vn 0.764056 -0.113072 -0.635164
vn 0.585078 -0.740368 -0.330966
vn 0.149906 -0.686832 -0.711190
vn -0.887369 0.290356 0.358148
vn -0.243210 -0.816525 0.523579
vn 0.780784 -0.123913 0.612391
vn 0.190753 0.845628 0.498525
vn -0.607922 0.271338 -0.746195
vn 0.303442 0.586647 -0.750845
vn 0.642000 -0.359957 -0.676954
vn -0.338408 -0.674472 -0.656177
vn -0.223010 -0.972227 0.071002
vn 0.965824 -0.249725 0.069433
vn -0.350182 -0.935094 -0.054508
vn 0.918648 -0.381892 -0.101217
vn -0.943609 0.314974 -0.101952
vn -0.923487 0.334801 -0.187298
vn -0.891339 0.393536 -0.225041
vn -0.410476 -0.903019 -0.126749
vn 0.379431 0.895479 -0.232702
vn 0.451590 0.857757 -0.245600
vn 0.346178 0.934179 -0.086434
vn 0.882622 -0.443411 -0.156093
s 1
g Tassel_Low_Poly1 Pillows
usemtl initialShadingGroup
f 1/36/1 24/2/2 13/3/3 14/4/4
f 1/36/1 22/35/5 11/6/6 24/2/2
f 1/1/1 2/7/7 3/8/8 22/5/5
f 1/1/1 14/28/4 21/9/9 2/7/7
f 2/7/7 21/9/9 18/10/10 10/11/11
f 2/7/7 10/11/11 4/12/12 3/8/8
f 3/8/8 4/12/12 20/13/13 5/33/14
f 3/8/8 5/33/14 11/34/6 22/5/5
f 4/12/12 19/15/15 8/16/16 20/13/13
f 4/12/12 10/11/11 17/17/17 19/15/15
f 5/14/14 20/32/13 8/31/16 6/18/18
f 5/14/14 6/18/18 15/19/19 11/6/6
f 6/18/18 26/20/20 12/21/21 15/19/19
f 6/18/18 8/31/16 7/30/22 26/20/20
f 7/22/22 17/17/17 23/23/23 9/24/24
f 7/22/22 8/16/16 19/15/15 17/17/17
f 7/30/22 9/29/24 12/21/21 26/20/20
f 9/24/24 23/23/23 18/10/10 16/25/25
f 9/29/24 16/27/25 25/26/26 12/21/21
f 10/11/11 18/10/10 23/23/23 17/17/17
f 11/6/6 15/19/19 13/3/3 24/2/2
f 12/21/21 25/26/26 13/3/3 15/19/19
f 13/3/3 25/26/26 16/27/25 14/4/4
f 14/28/4 16/25/25 18/10/10 21/9/9
s 2
f 35/51/27 30/37/28 28/38/29 42/58/30
f 43/52/31 45/39/32 46/40/33 44/53/34
f 29/43/35 27/60/36 28/41/29 30/45/28
f 29/43/35 31/44/37 32/42/38 27/60/36
f 29/61/35 34/63/39 33/50/40 31/62/37
f 29/61/35 30/37/28 35/51/27 34/63/39
f 33/49/40 36/64/41 37/47/42 31/46/37
f 33/49/40 38/54/43 39/57/44 36/64/41
f 33/50/40 34/63/39 40/56/45 38/55/43
f 38/65/43 40/66/45 27/60/36 32/42/38
f 38/67/43 32/48/38 41/68/46 39/69/44
f 34/63/39 35/51/27 42/58/30 40/56/45
f 36/64/41 43/52/31 44/53/34 37/47/42
f 36/64/41 39/57/44 45/39/32 43/52/31
f 39/69/44 41/68/46 46/59/33 45/70/32
f 32/48/38 31/71/37 37/72/42 41/68/46
f 27/60/36 40/66/45 42/73/30 28/41/29
f 37/72/42 44/74/34 46/59/33 41/68/46
